<?xml version="1.0" standalone="no"?>
<!DOCTYPE svg PUBLIC "-//W3C//DTD SVG 20010904//EN"
 "http://www.w3.org/TR/2001/REC-SVG-20010904/DTD/svg10.dtd">
<svg version="1.0" xmlns="http://www.w3.org/2000/svg"
 width="700.000000pt" height="700.000000pt" viewBox="0 0 700.000000 700.000000"
 preserveAspectRatio="xMidYMid meet">
<metadata>
Created by potrace 1.14, written by Peter Selinger 2001-2017
</metadata>
<g transform="translate(0.000000,700.000000) scale(0.100000,-0.100000)"
fill="#000000" stroke="none">
<path d="M1455 4551 c-48 -12 -90 -37 -123 -75 -74 -84 -47 -232 51 -283 18
-9 73 -27 124 -39 104 -26 141 -46 149 -80 8 -32 -12 -79 -39 -92 -100 -48
-217 5 -217 98 l0 40 -65 0 -65 0 0 -47 c1 -89 54 -167 140 -206 54 -25 184
-29 243 -9 86 31 136 105 137 202 0 112 -55 165 -213 204 -111 28 -144 45
-153 81 -23 91 155 127 206 42 11 -18 20 -42 20 -54 0 -22 4 -23 65 -23 l65 0
0 38 c-1 140 -164 242 -325 203z"/>
<path d="M2610 4200 l0 -340 65 0 64 0 3 128 3 127 110 5 c126 6 158 19 203
84 24 35 27 48 27 126 0 77 -3 91 -27 127 -47 71 -87 83 -281 83 l-167 0 0
-340z m325 195 c19 -18 25 -35 25 -65 0 -30 -6 -47 -25 -65 -22 -23 -32 -25
-110 -25 l-85 0 0 90 0 90 85 0 c78 0 88 -2 110 -25z"/>
<path d="M3930 4200 l0 -340 225 0 225 0 0 60 0 60 -160 0 -160 0 0 280 0 280
-65 0 -65 0 0 -340z"/>
<path d="M5240 4480 l0 -60 80 0 80 0 0 -220 0 -220 -80 0 -80 0 0 -60 0 -60
230 0 230 0 0 60 0 60 -85 0 -85 0 0 220 0 220 85 0 85 0 0 60 0 60 -230 0
-230 0 0 -60z"/>
<path d="M1280 3020 l0 -59 93 -3 92 -3 3 -283 2 -283 63 3 62 3 3 283 2 282
90 0 90 0 0 60 0 60 -250 0 -250 0 0 -60z"/>
<path d="M2600 3020 l0 -60 90 0 90 0 0 -285 0 -285 65 0 65 0 0 285 0 285 90
0 90 0 0 60 0 60 -245 0 -245 0 0 -60z"/>
<path d="M3932 2738 l3 -343 223 -3 222 -2 0 65 0 65 -160 0 -161 0 3 78 3 77
148 3 147 3 0 59 0 60 -150 0 -151 0 3 78 3 77 153 3 152 3 0 59 0 60 -220 0
-220 0 2 -342z"/>
<path d="M5240 2735 l0 -346 63 3 62 3 3 128 3 127 89 0 c78 0 91 -2 100 -19
5 -11 10 -69 10 -130 l0 -111 65 0 65 0 0 134 c0 120 -2 136 -21 160 -11 14
-27 26 -34 26 -27 0 -25 19 5 37 35 20 70 85 70 129 0 81 -45 154 -115 185
-33 16 -67 19 -202 19 l-163 0 0 -345z m322 197 c17 -17 23 -34 23 -68 0 -69
-24 -84 -131 -84 l-84 0 0 91 0 91 85 -3 c72 -3 88 -7 107 -27z"/>
</g>
</svg>
